<svg width="285" height="180" viewBox="0 0 285 180" fill="none" xmlns="http://www.w3.org/2000/svg">
<path fill-rule="evenodd" clip-rule="evenodd" d="M110.505 98.4318L135.995 117.492C139.168 119.865 143.521 119.883 146.714 117.536L174.66 96.9998L276.028 172.797C279.109 175.1 277.48 180 273.633 180L11.703 180C7.83914 180 6.22079 175.065 9.33438 172.777L110.505 98.4318Z" fill="#E5E5E5"/>
<path d="M139.125 104.655L7.17518 5.39742C4.87296 3.66561 6.09774 0 8.97861 0H275.194C278.088 0 279.304 3.69228 276.978 5.41237L142.712 104.67C141.645 105.459 140.186 105.453 139.125 104.655Z" fill="#E5E5E5"/>
<path d="M183.882 89.3304L280.387 13L280.387 167L183.882 89.3304Z" fill="#E5E5E5"/>
<path d="M101.722 90.6696L5.2168 167L5.2168 13L101.722 90.6696Z" fill="#E5E5E5"/>
</svg>
