<svg width="144" height="200" viewBox="0 0 144 200" fill="none" xmlns="http://www.w3.org/2000/svg">
<path fill-rule="evenodd" clip-rule="evenodd" d="M104.425 0H103.91V31C103.91 36.5228 108.387 41 113.91 41H143.999V40.798L104.425 0Z" fill="white"/>
<path fill-rule="evenodd" clip-rule="evenodd" d="M10 0C4.47656 0 0 4.47717 0 10V190C0 195.523 4.47656 200 10 200H134C139.523 200 144 195.523 144 190V45H110C104.477 45 100 40.5228 100 35V0H10ZM19 103C19 101.343 20.3438 100 22 100H121C122.656 100 124 101.343 124 103C124 104.657 122.656 106 121 106H22C20.3438 106 19 104.657 19 103ZM22 118C20.3438 118 19 119.343 19 121C19 122.657 20.3438 124 22 124H121C122.656 124 124 122.657 124 121C124 119.343 122.656 118 121 118H22ZM19 139C19 137.343 20.3438 136 22 136H121C122.656 136 124 137.343 124 139C124 140.657 122.656 142 121 142H22C20.3438 142 19 140.657 19 139ZM22 154C20.3438 154 19 155.343 19 157C19 158.657 20.3438 160 22 160H121C122.656 160 124 158.657 124 157C124 155.343 122.656 154 121 154H22Z" fill="white"/>
</svg>
