<svg width="200" height="201" viewBox="0 0 200 201" fill="none" xmlns="http://www.w3.org/2000/svg">
<path fill-rule="evenodd" clip-rule="evenodd" d="M125.275 1H14.652C6.55993 1 0 7.55993 0 15.652V186.348C0 194.44 6.55993 201 14.652 201H185.348C193.44 201 200 194.44 200 186.348V74.2601H191.209V186.348C191.209 189.585 188.585 192.209 185.348 192.209H14.652C11.4152 192.209 8.79121 189.585 8.79121 186.348V15.652C8.79121 12.4152 11.4152 9.79121 14.652 9.79121H125.275V1Z" fill="white"/>
<path d="M78.2052 114.744C76.4914 116.463 76.4959 119.246 78.2152 120.96C79.9345 122.674 82.7177 122.669 84.4315 120.95L78.2052 114.744ZM198.534 4.6559C198.531 2.22828 196.559 0.263463 194.132 0.267367L154.571 0.330985C152.144 0.334889 150.179 2.30603 150.183 4.73365C150.187 7.16128 152.158 9.12609 154.586 9.12218L189.75 9.06563L189.807 44.2304C189.811 46.658 191.782 48.6229 194.21 48.619C196.637 48.6151 198.602 46.6439 198.598 44.2163L198.534 4.6559ZM84.4315 120.95L197.252 7.76613L191.026 1.55981L78.2052 114.744L84.4315 120.95Z" fill="white"/>
</svg>
