<svg xmlns="http://www.w3.org/2000/svg" viewBox="0 0 281.64 103.95"><defs><style>.cls-1{fill:#fff;}</style></defs><title>Recurso 2</title><g id="Capa_2" data-name="Capa 2"><g id="Capa_1-2" data-name="Capa 1"><path class="cls-1" d="M90.14,6.6A40.39,40.39,0,0,0,67.77,0H22.12L45.25,72.29H68.14A40.34,40.34,0,0,0,96.36,61.11a33.76,33.76,0,0,0,10.48-25C106.84,21.22,98.27,12,90.14,6.6Zm-1,40.46a23.22,23.22,0,0,1-20,11.06H59.42V14.46h9.71a23.23,23.23,0,0,1,17,7.2,20.8,20.8,0,0,1,6,14.48A21.09,21.09,0,0,1,89.09,47.06Z"/><polygon class="cls-1" points="6.79 48.29 14.89 23.71 22.12 48.29 6.79 48.29"/><polygon class="cls-1" points="0 72.29 2.6 61.66 27.54 61.66 30.8 72.29 0 72.29"/><path class="cls-1" d="M144.43,0H129.25L106,72.29H122.1l2.6-10.63h24.94l3.25,10.63h14.68ZM128.89,48.29,137,23.71l7.23,24.58Z"/><polygon class="cls-1" points="175.66 0 189.76 22.84 203.85 0 175.66 0"/><polygon class="cls-1" points="175.66 72.29 189.76 49.45 203.85 72.29 175.66 72.29"/><path class="cls-1" d="M258.22.58H220.34L198.07,36.14l22,36.15h15.61l2.61-10.63H263.2l3.26,10.63h15.18ZM242.46,48.29l8.09-24.58,7.23,24.58Z"/><path class="cls-1" d="M19.19,97.17,17,103.77h-2.8l7.13-21H24.6l7.16,21H28.87l-2.24-6.6Zm6.88-2.12L24,89c-.46-1.37-.77-2.61-1.09-3.83h-.06c-.31,1.25-.65,2.52-1.06,3.8l-2.05,6.07Z"/><path class="cls-1" d="M74.9,83.07a38.61,38.61,0,0,1,5.76-.44c3.89,0,6.66.9,8.5,2.62a9.68,9.68,0,0,1,3,7.53,11.09,11.09,0,0,1-3,8.15c-2,2-5.2,3-9.27,3a42.71,42.71,0,0,1-4.92-.25Zm2.71,18.55a17.69,17.69,0,0,0,2.74.15c5.79,0,8.93-3.23,8.93-8.9,0-5-2.77-8.09-8.5-8.09a15,15,0,0,0-3.17.28Z"/><path class="cls-1" d="M138.64,97.17l-2.18,6.6h-2.8l7.13-21h3.27l7.15,21h-2.89l-2.24-6.6Zm6.88-2.12-2.06-6c-.46-1.37-.77-2.61-1.09-3.83h-.06c-.31,1.25-.65,2.52-1.06,3.8l-2.05,6.07Z"/><path class="cls-1" d="M205.4,103.77l-2.68-4.64C201.63,97.35,201,96.2,200.3,95h-.07c-.59,1.21-1.18,2.33-2.27,4.17l-2.52,4.61h-3.11l6.41-10.62-6.16-10.36h3.14l2.77,4.91c.78,1.37,1.37,2.43,1.93,3.55h.09c.6-1.24,1.12-2.21,1.9-3.55l2.87-4.91h3.11L202,93l6.53,10.77Z"/><path class="cls-1" d="M254.86,97.17l-2.18,6.6h-2.81l7.13-21h3.27l7.16,21h-2.89l-2.25-6.6Zm6.87-2.12-2.05-6c-.47-1.37-.78-2.61-1.09-3.83h-.06c-.31,1.25-.66,2.52-1.06,3.8l-2.05,6.07Z"/></g></g></svg>