<svg width="43" height="37" viewBox="0 0 43 37" fill="none" xmlns="http://www.w3.org/2000/svg">
<path d="M23.3167 8.81936C23.6424 8.31601 24.0643 7.73865 24.5825 7.08726C25.1154 6.43587 25.715 5.78448 26.3812 5.13309C27.0474 4.4669 27.7728 3.83772 28.5574 3.24555C29.3569 2.65338 30.1859 2.17224 31.0446 1.80213C30.1563 1.58007 29.2088 1.40982 28.2021 1.29139C27.1954 1.17295 26.1147 1.11373 24.96 1.11373C23.3907 1.11373 21.8807 1.22477 20.4299 1.44683C18.9791 1.66889 17.6319 2.00939 16.3883 2.46833C15.1448 2.92726 14.0122 3.51943 12.9907 4.24484C11.9841 4.95544 11.118 5.81409 10.3926 6.82078C9.66719 7.82747 9.10463 8.9822 8.70491 10.285C8.32 11.5878 8.12754 13.046 8.12754 14.6596C8.12754 15.163 8.14975 15.6885 8.19416 16.2363C8.25338 16.7841 8.37182 17.3244 8.54947 17.8574C8.72712 18.3755 8.97879 18.8715 9.30448 19.3452C9.63018 19.8189 10.0669 20.226 10.6147 20.5665L10.326 21.0329C8.99359 20.3963 8.00911 19.5451 7.37253 18.4791C6.73594 17.3984 6.41765 15.992 6.41765 14.2599C6.41765 12.1577 6.87658 10.248 7.79445 8.53067C8.71231 6.81338 9.98548 5.34776 11.614 4.13381C13.2424 2.90505 15.1818 1.95758 17.432 1.29139C19.6971 0.610389 22.1694 0.269891 24.849 0.269891C27.6322 0.269891 30.1045 0.632596 32.2659 1.35801C34.4421 2.06861 36.2705 3.0901 37.7509 4.42249C39.2461 5.74007 40.3787 7.32413 41.1485 9.17466C41.9331 11.0252 42.3254 13.083 42.3254 15.348C42.3254 16.7544 42.1774 18.1386 41.8813 19.5006C41.5852 20.8626 41.1707 22.1728 40.6377 23.4312C40.1196 24.6895 39.4904 25.8887 38.7502 27.0286C38.0248 28.1537 37.2253 29.19 36.3519 30.1375C35.4784 31.085 34.5088 31.9732 33.4428 32.8023C32.3769 33.6165 31.2 34.3271 29.912 34.9341C28.6389 35.5411 27.2621 36.0148 25.7816 36.3553C24.3012 36.7106 22.7098 36.8883 21.0073 36.8883C19.971 36.8883 18.9865 36.829 18.0538 36.7106C17.1211 36.5922 16.2477 36.4367 15.4335 36.2443C14.634 36.0666 13.9012 35.8742 13.235 35.6669C12.5836 35.4448 12.0137 35.2376 11.5251 35.0451C10.4444 35.6669 9.31929 36.1258 8.14975 36.4219C6.99502 36.718 5.76626 36.866 4.46349 36.866C3.54562 36.866 2.79801 36.7994 2.22064 36.6662C1.64327 36.5478 1.19174 36.3775 0.86605 36.1554C0.540356 35.9482 0.31089 35.7113 0.177651 35.4448C0.0592171 35.1784 0 34.9119 0 34.6454C0 34.1125 0.170249 33.6905 0.510747 33.3796C0.86605 33.0688 1.31018 32.8319 1.84313 32.669C2.37609 32.4914 2.95345 32.3804 3.57523 32.3359C4.21182 32.2767 4.81139 32.2471 5.37395 32.2471C6.5879 32.2471 7.71303 32.3285 8.74932 32.4914C9.80043 32.6394 10.8071 32.8615 11.7694 33.1576C12.2283 32.6394 12.6873 32.0325 13.1462 31.3367C13.6199 30.626 14.1011 29.8044 14.5896 28.8717C15.0782 27.9391 15.5815 26.888 16.0996 25.7184C16.6326 24.5489 17.1878 23.2387 17.7651 21.7879C18.4609 20.041 19.0605 18.5458 19.5638 17.3022C20.0672 16.0438 20.4965 14.9779 20.8518 14.1045C21.2071 13.2162 21.5032 12.4834 21.7401 11.906C21.9917 11.3287 22.2064 10.8549 22.3841 10.4848C22.5617 10.0999 22.7172 9.78904 22.8504 9.55217C22.9984 9.3005 23.1539 9.05623 23.3167 8.81936ZM39.483 13.8824C39.483 10.7143 38.8538 8.16057 37.5954 6.22121C36.3519 4.26704 34.4421 2.87544 31.8662 2.0464C31.4665 2.25366 31.0742 2.49053 30.6893 2.75701C30.3043 3.02349 29.9416 3.31217 29.6011 3.62306C29.2606 3.93395 28.9424 4.25964 28.6463 4.60014C28.365 4.94064 28.1133 5.27373 27.8912 5.59943C27.7136 5.8511 27.5433 6.13238 27.3805 6.44327C27.2177 6.75416 27.0326 7.13167 26.8253 7.5758C26.6329 8.01993 26.4108 8.55288 26.1591 9.17466C25.9223 9.79644 25.641 10.5441 25.3153 11.4175C24.9896 12.2762 24.6121 13.2828 24.1828 14.4376C23.7535 15.5923 23.2649 16.9247 22.7172 18.4347C21.3256 22.2098 19.8673 25.3483 18.3425 27.8502C16.8177 30.3522 15.1818 32.3137 13.4349 33.7349C13.9974 33.9422 14.6118 34.1717 15.278 34.4233C15.9442 34.6602 16.6622 34.8823 17.432 35.0895C18.2019 35.2968 19.0087 35.467 19.8525 35.6003C20.7112 35.7335 21.6068 35.8001 22.5395 35.8001C24.0051 35.8001 25.3449 35.6299 26.5589 35.2894C27.7728 34.9341 28.8757 34.453 29.8676 33.846C30.8743 33.239 31.7774 32.5358 32.5768 31.7364C33.391 30.9221 34.1238 30.0561 34.7752 29.1382C35.4858 28.1167 36.1298 27.0064 36.7072 25.8073C37.2846 24.5933 37.7805 23.3275 38.195 22.01C38.6095 20.6924 38.9278 19.3526 39.1499 17.9906C39.372 16.6138 39.483 15.2444 39.483 13.8824ZM4.61893 36.0666C5.72925 36.0666 6.73594 35.9704 7.639 35.7779C8.54206 35.5707 9.40811 35.1636 10.2372 34.5566C9.94107 34.4678 9.52655 34.3493 8.99359 34.2013C8.46064 34.0384 7.87587 33.8904 7.23929 33.7572C6.61751 33.6091 5.97352 33.4833 5.30733 33.3796C4.65594 33.276 4.04157 33.2242 3.4642 33.2242C2.70918 33.2242 2.0874 33.3352 1.59886 33.5573C1.12512 33.7794 0.888256 34.1495 0.888256 34.6676C0.888256 34.8601 0.932669 35.0451 1.02149 35.2228C1.12512 35.3856 1.31018 35.5337 1.57665 35.6669C1.85794 35.7853 2.23544 35.8816 2.70918 35.9556C3.19772 36.0296 3.83431 36.0666 4.61893 36.0666Z" fill="currentColor"/>

<style>
	svg{ color:#000}
    @media (prefers-color-scheme: dark) {
        svg{ color:#E6E6E6}
    }
</style>

</svg>

