<svg width="473" height="454" viewBox="0 0 473 454" fill="none" xmlns="http://www.w3.org/2000/svg">
<mask id="mask0_172_21" style="mask-type:alpha" maskUnits="userSpaceOnUse" x="0" y="0" width="473" height="454">
<rect width="473" height="454" fill="#fff"/>
</mask>
<g mask="url(#mask0_172_21)">
<path d="M253.162 272.357C253.929 273.892 253.929 278.115 253.162 285.024C252.394 291.55 251.051 298.651 249.131 306.328C247.596 314.005 245.869 321.298 243.949 328.208C242.414 334.733 241.262 338.572 240.495 339.723C238.575 339.723 236.464 339.723 234.161 339.723C232.242 339.34 230.322 339.148 228.403 339.148C226.484 339.148 224.373 338.956 222.07 338.572C220.918 354.694 219.574 369.856 218.039 384.059C216.504 397.877 214.968 409.777 213.433 419.757C211.897 429.737 210.554 437.606 209.402 443.364C208.251 449.506 207.099 452.577 205.948 452.577C202.877 453.344 199.422 452.001 195.584 448.546C192.129 445.475 188.674 441.637 185.22 437.03C181.765 432.424 178.694 427.626 176.007 422.636C173.32 417.262 171.785 412.656 171.401 408.817C171.017 401.14 170.633 393.079 170.249 384.634C170.249 375.806 170.057 367.745 169.673 360.452C169.29 352.007 169.098 343.562 169.098 335.117C161.804 334.349 154.703 333.774 147.794 333.39C140.884 332.622 133.975 331.854 127.066 331.087C123.611 330.319 120.156 329.935 116.702 329.935C113.247 329.551 109.984 328.976 106.913 328.208C106.146 345.865 105.378 362.179 104.61 377.149C103.842 392.12 102.883 405.171 101.731 416.302C100.964 427.434 100.004 436.071 98.8523 442.213C98.0846 448.738 97.125 452.193 95.9734 452.577C92.9026 452.96 89.256 451.617 85.0336 448.546C80.8112 445.475 76.7807 441.637 72.9422 437.03C69.4875 432.424 66.2247 427.626 63.1539 422.636C60.4669 417.646 58.9315 413.232 58.5477 409.393C57.78 399.413 57.0122 389.241 56.2445 378.877C55.4768 368.129 54.7091 358.34 53.9414 349.512C53.1737 339.148 52.406 328.976 51.6383 318.995C48.5675 318.611 45.4966 318.036 42.4258 317.268C39.7388 316.5 36.8599 315.924 33.7891 315.541C31.1021 315.157 28.607 314.581 26.3039 313.813C24.7685 313.046 22.6573 311.51 19.9703 309.207C17.2833 306.52 14.5964 303.641 11.9094 300.57C9.2224 297.499 6.91927 294.621 5 291.934C3.08073 288.863 2.12109 286.56 2.12109 285.024C2.12109 284.257 6.34349 283.297 14.7883 282.145C23.6169 280.994 35.1326 280.034 49.3352 279.266C47.7997 257.003 46.2643 234.355 44.7289 211.324C43.5773 187.909 42.6177 166.221 41.85 146.261C41.0823 125.917 40.6984 108.259 40.6984 93.289C40.6984 77.9349 41.2742 67.3789 42.4258 61.6211C43.9612 53.5601 47.6078 45.883 53.3656 38.5898C59.5073 30.9127 66.0328 24.1953 72.9422 18.4375C79.8516 12.6797 86.3771 8.26534 92.5188 5.1945C98.6604 2.12367 102.691 1.16404 104.61 2.3156C105.762 3.46716 106.721 8.07341 107.489 16.1343C108.641 24.1953 109.408 34.9432 109.792 48.3781C110.56 61.813 110.944 77.3591 110.944 95.0164C110.944 112.674 110.944 131.483 110.944 151.443C110.944 171.02 110.56 191.556 109.792 213.052C109.408 234.164 109.024 255.084 108.641 275.812C118.621 275.044 128.409 274.468 138.005 274.084C147.986 273.701 157.774 273.125 167.37 272.357C166.986 250.477 166.603 228.214 166.219 205.566C166.219 182.919 166.219 161.807 166.219 142.23C166.219 122.654 166.603 105.572 167.37 90.9859C168.138 76.3995 169.098 66.2273 170.249 60.4695C172.168 52.4086 176.199 44.7315 182.341 37.4383C188.866 30.145 195.584 23.8114 202.493 18.4375C209.786 12.6797 216.504 8.45727 222.645 5.77029C229.171 3.08331 233.393 2.50753 235.313 4.04294C237.232 5.1945 238.383 14.2151 238.767 31.1047C239.151 47.6104 238.767 68.5304 237.616 93.8648C236.848 119.199 235.504 147.604 233.585 179.08C232.05 210.173 230.13 240.881 227.827 271.205C243.182 271.205 251.626 271.589 253.162 272.357ZM348.741 253.356C348.741 258.346 348.549 266.215 348.166 276.963C348.166 287.711 347.974 299.803 347.59 313.237C347.206 326.672 346.63 340.683 345.863 355.27C345.479 369.472 344.711 382.523 343.559 394.423C342.408 405.938 341.064 415.535 339.529 423.212C338.377 430.889 336.842 434.727 334.923 434.727C329.165 434.727 323.599 430.697 318.225 422.636C313.235 414.191 308.053 405.171 302.679 395.574C301.527 393.271 300.184 386.554 298.648 375.422C297.497 363.906 296.153 349.512 294.618 332.238C293.466 314.965 292.315 295.772 291.163 274.66C290.012 253.548 288.86 232.052 287.709 210.173C286.557 188.293 285.597 166.797 284.83 145.685C284.446 124.573 284.062 105.572 283.678 88.6828C283.294 71.7932 283.294 57.7825 283.678 46.6508C284.062 35.1351 284.83 28.4177 285.981 26.4984C287.517 23.8114 292.891 21.8922 302.103 20.7406C311.316 19.2052 322.447 18.4375 335.498 18.4375C348.933 18.4375 363.328 18.8213 378.682 19.589C394.036 20.3567 408.239 21.5083 421.29 23.0437C434.725 24.1953 445.857 25.5388 454.685 27.0742C463.898 28.6096 469.08 29.9531 470.231 31.1047C471.767 32.6401 471.959 36.8625 470.807 43.7719C470.039 50.2974 468.504 57.5906 466.201 65.6515C464.282 73.3286 461.786 80.6219 458.716 87.5312C456.029 94.4406 453.726 98.8549 451.806 100.774C449.887 102.693 440.866 102.502 424.745 100.198C409.007 97.8953 383.672 95.2083 348.741 92.1375V188.293C375.611 190.596 396.531 192.707 411.502 194.627C426.856 196.546 434.917 197.889 435.684 198.657C437.22 200.192 437.796 203.263 437.412 207.87C437.028 212.476 436.068 217.466 434.533 222.84C432.997 227.83 431.078 232.628 428.775 237.234C426.472 241.457 424.169 244.336 421.866 245.871C420.714 246.639 413.805 247.79 401.138 249.326C388.854 250.861 371.389 252.205 348.741 253.356Z" fill="#fff"/>
</g>
</svg>
