<svg width="197" height="197" viewBox="0 0 197 197" fill="none" xmlns="http://www.w3.org/2000/svg">
<rect width="197" height="197" fill="black"/>
<path d="M95.3579 60.4304C96.4551 58.7347 97.8766 56.7896 99.6222 54.5951C101.418 52.4007 103.438 50.2062 105.682 48.0117C107.926 45.7673 110.37 43.6477 113.013 41.6527C115.707 39.6577 118.5 38.0368 121.392 36.7899C118.4 36.0418 115.208 35.4683 111.816 35.0693C108.425 34.6703 104.784 34.4708 100.894 34.4708C95.6073 34.4708 90.5201 34.8448 85.6324 35.593C80.7447 36.3411 76.2061 37.4882 72.0166 39.0343C67.8272 40.5804 64.0118 42.5754 60.5705 45.0192C57.179 47.4132 54.2613 50.3059 51.8175 53.6974C49.3736 57.0889 47.4784 60.9791 46.1318 65.368C44.8351 69.757 44.1867 74.6696 44.1867 80.1059C44.1867 81.8017 44.2615 83.5722 44.4111 85.4176C44.6106 87.2629 45.0096 89.0833 45.6081 90.8788C46.2066 92.6244 47.0545 94.2952 48.1517 95.8912C49.2489 97.4872 50.7202 98.8587 52.5656 100.006L51.593 101.577C47.1043 99.4323 43.7877 96.5645 41.6431 92.9735C39.4985 89.3327 38.4262 84.5946 38.4262 78.7593C38.4262 71.6771 39.9723 65.2433 43.0645 59.4579C46.1567 53.6725 50.4459 48.7349 55.9321 44.6452C61.4183 40.5056 67.9519 37.3136 75.5328 35.0693C83.1636 32.775 91.4926 31.6279 100.52 31.6279C109.896 31.6279 118.225 32.8499 125.507 35.2937C132.839 37.6877 138.998 41.129 143.986 45.6177C149.023 50.0566 152.838 55.3931 155.432 61.6274C158.075 67.8617 159.397 74.7943 159.397 82.4251C159.397 87.1632 158.898 91.8264 157.901 96.4149C156.903 101.003 155.507 105.417 153.711 109.657C151.965 113.896 149.846 117.936 147.352 121.776C144.908 125.567 142.215 129.058 139.272 132.25C136.33 135.442 133.063 138.434 129.472 141.227C125.881 143.97 121.916 146.364 117.577 148.409C113.288 150.454 108.649 152.05 103.662 153.197C98.6746 154.394 93.3131 154.992 87.5775 154.992C84.0863 154.992 80.7696 154.793 77.6275 154.394C74.4854 153.995 71.5428 153.471 68.7997 152.823C66.1065 152.224 63.6377 151.576 61.3934 150.878C59.1989 150.13 57.2787 149.431 55.6329 148.783C51.992 150.878 48.2016 152.424 44.2615 153.421C40.3713 154.419 36.2317 154.918 31.8428 154.918C28.7505 154.918 26.2319 154.693 24.2868 154.244C22.3417 153.845 20.8205 153.272 19.7233 152.524C18.626 151.825 17.853 151.027 17.4041 150.13C17.0051 149.232 16.8056 148.334 16.8056 147.436C16.8056 145.641 17.3792 144.22 18.5263 143.172C19.7233 142.125 21.2195 141.327 23.015 140.778C24.8105 140.18 26.7556 139.806 28.8503 139.656C30.9949 139.457 33.0148 139.357 34.91 139.357C38.9997 139.357 42.7902 139.631 46.2814 140.18C49.8225 140.678 53.214 141.427 56.4558 142.424C58.0019 140.678 59.548 138.634 61.0941 136.29C62.6901 133.896 64.311 131.128 65.9569 127.985C67.6028 124.843 69.2985 121.302 71.0441 117.362C72.8396 113.422 74.7099 109.008 76.655 104.12C78.9991 98.2353 81.019 93.198 82.7147 89.0085C84.4105 84.7692 85.8568 81.1782 87.0538 78.2356C88.2508 75.2432 89.2483 72.7744 90.0463 70.8293C90.8941 68.8842 91.6173 67.2882 92.2158 66.0413C92.8143 64.7446 93.338 63.6972 93.7869 62.8992C94.2856 62.0514 94.8093 61.2284 95.3579 60.4304ZM149.821 77.4875C149.821 66.8144 147.701 58.211 143.462 51.6775C139.272 45.094 132.839 40.4058 124.16 37.6129C122.814 38.3111 121.492 39.1091 120.195 40.0068C118.899 40.9046 117.677 41.8771 116.53 42.9245C115.383 43.9719 114.31 45.0691 113.313 46.2162C112.365 47.3633 111.517 48.4855 110.769 49.5827C110.171 50.4306 109.597 51.3782 109.048 52.4256C108.5 53.473 107.876 54.7448 107.178 56.241C106.53 57.7372 105.782 59.5327 104.934 61.6274C104.136 63.7222 103.188 66.2408 102.091 69.1834C100.994 72.0761 99.7219 75.4676 98.2756 79.3578C96.8292 83.248 95.1833 87.7367 93.338 92.8239C88.6498 105.542 83.7372 116.115 78.6001 124.544C73.463 132.973 67.9519 139.581 62.0667 144.369C63.9619 145.067 66.0317 145.841 68.2761 146.688C70.5204 147.486 72.9393 148.234 75.5328 148.933C78.1263 149.631 80.8444 150.205 83.6873 150.653C86.58 151.102 89.5974 151.327 92.7395 151.327C97.6771 151.327 102.191 150.753 106.28 149.606C110.37 148.409 114.086 146.788 117.427 144.743C120.819 142.698 123.861 140.329 126.554 137.636C129.297 134.893 131.766 131.975 133.961 128.883C136.355 125.442 138.524 121.701 140.469 117.661C142.414 113.572 144.085 109.307 145.482 104.869C146.878 100.43 147.951 95.9161 148.699 91.3277C149.447 86.6894 149.821 82.076 149.821 77.4875ZM32.3664 152.224C36.107 152.224 39.4985 151.9 42.5408 151.252C45.5832 150.554 48.5008 149.182 51.2938 147.137C50.2963 146.838 48.8998 146.439 47.1043 145.94C45.3089 145.392 43.3388 144.893 41.1942 144.444C39.0995 143.945 36.9299 143.521 34.6856 143.172C32.4911 142.823 30.4213 142.649 28.4762 142.649C25.9326 142.649 23.8379 143.023 22.192 143.771C20.5961 144.519 19.7981 145.766 19.7981 147.511C19.7981 148.16 19.9477 148.783 20.2469 149.382C20.5961 149.93 21.2195 150.429 22.1172 150.878C23.0648 151.277 24.3366 151.601 25.9326 151.85C27.5785 152.1 29.7231 152.224 32.3664 152.224Z" fill="#E6E6E6"/>
</svg>
